<svg version="1.1" id="brand_logo5" xmlns="http://www.w3.org/2000/svg" xmlns:xlink="http://www.w3.org/1999/xlink" x="0px" y="0px" width="160.919px" height="26.999px" viewBox="0 0 160.919 26.999" enable-background="new 0 0 160.919 26.999" xml:space="preserve">
                                                <g>
                                                    <path fill="#004DA0" d="M14.868,10.648c0,0-7.481,6.582-8.898,7.827v-7.827H0c1.005,0.561,1.875,1.23,1.875,2.902v13.449H5.97
                                                        v-5.325l2.97-2.624l5.849,7.949h4.32l-5.859-7.949h-4.31l9.608-8.402H14.868 M31.554,10.648c1.004,0.561,1.873,1.23,1.873,2.902
                                                        v10.691c0,0.456-0.268,0.67-0.817,0.67h-7.306c-0.534,0-0.816-0.215-0.816-0.67V10.648h-5.939c1.004,0.561,1.873,1.23,1.873,2.902
                                                        v10.639c0,0.802,0.322,1.458,0.962,2.02c0.642,0.521,1.406,0.79,2.29,0.79h9.714c0.87,0,1.646-0.269,2.275-0.79
                                                        c0.642-0.562,0.964-1.218,0.964-2.02V10.648H31.554 M44.868,12.735h8.309c0.628,0,0.926,0.361,0.926,1.109v2.744
                                                        c0,0.735-0.298,1.11-0.926,1.11h-8.309V12.735 M38.913,10.648c1.003,0.561,1.873,1.23,1.873,2.902v13.449h4.082v-7.133h3.586
                                                        l5.258,7.133h4.296l-5.258-7.133h1.537c1.821-0.24,2.744-1.151,2.744-2.729v-3.318c0-2.102-1.178-3.171-3.546-3.171H38.913
                                                         M71.522,10.648c1.003,0.561,1.873,1.23,1.873,2.902v10.691c0,0.456-0.267,0.67-0.803,0.67h-7.307c-0.535,0-0.803-0.215-0.803-0.67
                                                        V10.648h-5.967c1.016,0.561,1.886,1.23,1.886,2.902v10.639c0,0.802,0.321,1.458,0.948,2.02c0.645,0.521,1.408,0.79,2.29,0.79h9.715
                                                        c0.884,0,1.633-0.269,2.287-0.79c0.63-0.562,0.964-1.218,0.964-2.02V10.648H71.522 M84.944,10.648v2.1h7.625v14.251h4.08V12.748
                                                        h7.629v-2.1H84.944 M109.297,23.961V13.725c0-0.655,0.32-0.99,1.002-0.99h7.44c0.667,0,1.005,0.335,1.005,0.99v10.236
                                                        c0,0.642-0.338,0.95-1.005,0.95h-7.44C109.617,24.912,109.297,24.604,109.297,23.961 M108.787,10.648
                                                        c-2.383,0-3.587,1.109-3.587,3.318v9.728c0,2.208,1.204,3.306,3.587,3.306h9.58c2.383,0,3.573-1.098,3.573-3.306v-9.728
                                                        c0-2.208-1.19-3.318-3.573-3.318H108.787 M128.43,10.648c-2.381,0-3.587,1.109-3.587,3.318v9.728c0,2.208,1.206,3.306,3.587,3.306
                                                        h9.047c2.381,0,3.584-1.098,3.584-3.306v-3.732c0-0.75-0.319-1.113-0.935-1.113h-9.516c2.543,0.497,7.508,0.363,7.508,4.457v0.657
                                                        c0,0.642-0.336,0.95-1.005,0.95h-7.17c-0.67,0-1.005-0.308-1.005-0.95V13.725c0-0.655,0.335-0.99,1.005-0.99h10.155v-2.087H128.43
                                                         M146.95,20.268l2.783-6.196l3.198,6.196l0.052,0.08l-6.088,0.015L146.95,20.268 M145.772,10.648
                                                        c1.004,0.561,1.873,1.23,1.873,2.89l-6.088,13.461h2.328l2.127-4.644l0.802-1.793c2.624,0.32,6.305,0.71,7.977,3.252l1.659,3.185
                                                        h4.469l-8.524-16.351H145.772"></path>
                                                    <path fill="#004DA0" d="M9.514,4.591V5.53h3.265v2.106h1.04V5.53h3.284V4.591H9.514 M0.586,0v0.929h6.007v0.956H0.586v0.92h6.007
                                                        v1.114H0.31v0.938h3.219v2.787h1.04V4.858h3.459V3.919H7.642V0H0.586 M9.78,0v0.921h5.951v0.588H9.78v1.702
                                                        c0,0.249,0.054,0.432,0.165,0.542c0.101,0.101,0.258,0.158,0.459,0.158h6.449V2.99h-5.96v-0.58h5.96V0H9.78 M19.167,0v4.066
                                                        c0,0.249,0.056,0.433,0.165,0.534c0.093,0.101,0.239,0.157,0.451,0.157h2.218v1.499h-3.284v0.938h7.589V6.256h-3.283V4.757h2.806
                                                        v-0.93h-5.612v-1.03h5.51V1.885h-5.51V0.929h5.612V0H19.167 M28.306,0v0.929h3.119c0,1.234-0.258,2.199-0.782,2.89
                                                        c-0.551,0.744-1.371,1.131-2.457,1.159v1.03c1.133-0.057,2.063-0.396,2.779-1.03c1.022-0.875,1.526-2.273,1.526-4.195V0H28.306
                                                         M34.202,0v7.61h1.05V3.634h1.059V2.705h-1.059V0H34.202"></path>
                                                </g>
                                                </svg>