<svg version="1.1" id="brand_logo6" xmlns="http://www.w3.org/2000/svg" xmlns:xlink="http://www.w3.org/1999/xlink" x="0px" y="0px" width="134.624px" height="42.75px" viewBox="0 0 134.624 42.75" enable-background="new 0 0 134.624 42.75" xml:space="preserve">
                                                <g>
                                                    <g>
                                                        <path fill="#231815" id="brand_svg_c1" d="M122.807,3.021l-2.308,0.004l-18.418-0.004l-0.396,1.438l-7.6-3.11c0,0-0.771,1.245-1.098,1.773
                                                            c-0.556-0.044-1.199-0.104-1.199-0.104c-4.687,0.004-9.011,1.642-12.405,4.373c0.324-1.065,0.549-1.759,0.549-1.759L77.84,4.426
                                                            c-1.886-1.085-6.67-2.055-9.119-2.059l-1.629,0.004c0,0-0.345,0.523-0.603,0.924c-0.761-0.065-1.552-0.058-2.463-0.062
                                                            c-4.994,0.004-8.165,2.13-10.015,4.041c-3.362-2.663-7.609-4.261-12.245-4.261c-4.597,0-8.961,1.566-12.469,4.425
                                                            c-3.272-2.814-7.879-4.427-13.384-4.427L7.71,3.008L5.377,3.003l-3.98,15.39l3.081-0.004v23.172l15.385-0.004l-0.001-7.39
                                                            c2.029-0.219,3.864-0.663,5.521-1.291c3.604,5.427,9.744,8.779,16.377,8.783c4.033,0,7.78-1.21,10.904-3.27
                                                            c3.619,2.116,7.55,3.178,12.022,3.178c5.083,0.002,10.197-1.919,13.222-5.617c3.663,3.602,8.649,5.711,13.876,5.719
                                                            c2.428-0.008,4.83-0.475,7.064-1.328l0.257,1.229l10.486,0.005c0,0,0.868-3.48,1.166-4.683l5.03,0.004
                                                            c0.261,1.159,1.045,4.682,1.045,4.682h16.379L122.807,3.021z"></path>
                                                        <path fill="#231815" id="brand_svg_c2" d="M91.785,42.75h-0.002c-5.035-0.007-10.003-1.911-13.803-5.257c-3.143,3.246-8.017,5.155-13.286,5.155
                                                            c-4.405,0-8.335-0.981-11.998-2.998c-3.29,2.023-7.057,3.089-10.937,3.089c-6.684-0.003-12.899-3.189-16.793-8.567
                                                            c-1.276,0.426-2.624,0.743-4.023,0.948l0.001,7.518L3.396,42.642v-23.17L0,19.476L4.54,1.921l11.374,0.01
                                                            c5.294,0,9.905,1.423,13.398,4.125c3.576-2.664,7.964-4.123,12.454-4.123c4.421,0,8.604,1.353,12.16,3.922
                                                            c2.017-1.817,5.27-3.698,10.1-3.702l0.331,0.001c0.541,0.001,1.062,0.003,1.568,0.024c0.148-0.227,0.263-0.401,0.263-0.401
                                                            l0.319-0.485l2.211-0.005c2.635,0.004,7.607,1.021,9.66,2.202l2.575,1.483c3.247-1.968,7.008-3.032,10.833-3.036l0.101,0.005
                                                            c0.002,0,0.229,0.021,0.529,0.048L93.647,0l7.319,2.996l0.292-1.057l19.24,0.004l3.135-0.005l10.99,40.72h-18.658l-0.188-0.846
                                                            c0,0-0.521-2.345-0.855-3.837l-3.319-0.003c-0.373,1.506-0.961,3.862-0.961,3.862l-0.205,0.82L98.228,42.65l-0.185-0.884
                                                            c-2.039,0.646-4.138,0.977-6.256,0.983H91.785z M77.821,34.349l0.845,0.831c3.488,3.429,8.269,5.4,13.116,5.408
                                                            c2.27-0.008,4.518-0.431,6.681-1.257l1.185-0.452l0.337,1.609l8.763,0.004c0.276-1.104,0.755-3.028,0.961-3.86l0.203-0.822
                                                            l6.742,0.005l0.19,0.843c0.18,0.8,0.607,2.721,0.856,3.84h14.101l-9.822-36.394l-1.478,0.002l-17.597-0.003l-0.503,1.817
                                                            l-7.879-3.225l-0.964,1.557L92.9,4.199c-0.467-0.038-0.997-0.086-1.161-0.102c-4.238,0.016-8.384,1.482-11.679,4.135l-2.734,2.2
                                                            l1.022-3.357c0.109-0.36,0.207-0.678,0.29-0.941L77.3,5.362c-1.706-0.981-6.28-1.91-8.581-1.914L67.677,3.45
                                                            c-0.091,0.141-0.19,0.293-0.278,0.431l-0.354,0.547l-0.648-0.056c-0.623-0.054-1.281-0.055-2.043-0.057l-0.331-0.001
                                                            c-4.665,0.003-7.597,2.02-9.233,3.712l-0.682,0.703L53.34,8.121c-3.325-2.634-7.327-4.026-11.573-4.026
                                                            c-4.353,0-8.429,1.446-11.785,4.182l-0.702,0.571l-0.686-0.59c-3.169-2.725-7.554-4.165-12.68-4.165l-9.7-0.007L2.794,17.31
                                                            l2.765-0.003v23.172l13.223-0.003l-0.002-7.279l0.966-0.104c1.867-0.201,3.636-0.613,5.255-1.227l0.807-0.306l0.477,0.719
                                                            c3.449,5.193,9.235,8.296,15.477,8.3c3.678,0,7.242-1.069,10.309-3.092l0.561-0.369l0.58,0.339
                                                            c3.488,2.039,7.242,3.03,11.478,3.03c5.084,0,9.712-1.952,12.385-5.221L77.821,34.349z"></path>
                                                    </g>
                                                    <g>
                                                        <path fill="#FFF000" id="brand_svg_c6" d="M98.138,26.318c-1.338,2.052-3.686,3.419-6.353,3.419c-4.153-0.004-7.527-3.317-7.527-7.404
                                                            c0-4.081,3.374-7.388,7.527-7.388c2.457,0,4.646,1.164,6.018,2.952l4.897-9.775l-7.393-3.015l-0.725,1.158
                                                            c-0.908-0.151-1.847-0.227-2.792-0.23c-8.547,0.004-15.577,6.339-16.496,14.498c2.499,1.995,3.824,4.586,3.824,7.519
                                                            c-0.003,1.403-0.236,2.73-0.701,3.949c3.022,4.031,7.88,6.642,13.362,6.646c3.941,0,7.569-1.353,10.423-3.607
                                                            c0,0-0.532-2.241-1.773-4.752C99.184,27.77,98.138,26.318,98.138,26.318"></path>
                                                        <path fill="#FFF000" id="brand_svg_c6_1" d="M91.78,39.074L91.78,39.074c-5.383-0.004-10.507-2.552-13.704-6.817l-0.142-0.188l0.084-0.221
                                                            c0.444-1.164,0.671-2.441,0.673-3.798c0-2.786-1.268-5.271-3.663-7.184l-0.185-0.147l0.026-0.235
                                                            c0.954-8.478,8.229-14.873,16.921-14.877c0.886,0.004,1.752,0.068,2.579,0.191l0.766-1.224l8.153,3.325l-5.41,10.799l-0.415-0.542
                                                            c-1.338-1.743-3.46-2.784-5.679-2.784c-3.915,0-7.1,3.122-7.1,6.96c0,3.843,3.185,6.973,7.101,6.978
                                                            c2.436,0,4.677-1.206,5.993-3.226l0.341-0.522l0.364,0.506c0.044,0.061,1.081,1.508,2.328,4.029
                                                            c1.249,2.524,1.784,4.749,1.807,4.843l0.063,0.265l-0.213,0.169C99.449,37.76,95.654,39.074,91.78,39.074z M78.9,31.929
                                                            c3.046,3.939,7.843,6.287,12.88,6.29c3.589,0,7.106-1.187,9.938-3.345c-0.179-0.657-0.712-2.455-1.673-4.397
                                                            c-0.797-1.61-1.516-2.786-1.918-3.406c-1.505,1.949-3.831,3.095-6.343,3.095c-4.387-0.004-7.955-3.519-7.955-7.832
                                                            c0-4.31,3.568-7.814,7.955-7.814c2.257,0,4.426,0.963,5.927,2.605l4.399-8.781L95.479,5.64l-0.685,1.095l-0.282-0.047
                                                            c-0.868-0.146-1.784-0.221-2.724-0.225c-8.175,0.004-15.03,5.957-16.041,13.887c2.486,2.061,3.799,4.719,3.799,7.702
                                                            C79.544,29.426,79.327,30.729,78.9,31.929z"></path>
                                                    </g>
                                                    <g>
                                                        <path fill="#009844" id="brand_svg_c7" d="M68.428,18.84c-2.786-0.65-4.62-1.372-4.62-3.169c0-1.22,0.958-2.084,2.417-2.087
                                                            c1.468,0,4.251,0.144,7.473,1.943l2.636-8.481c-1.243-0.726-5.419-1.66-7.617-1.66L67.913,6.61
                                                            c-1.173-0.362-2.195-0.357-3.887-0.355c-4.655-0.007-7.383,2.248-8.811,4.235c2.978,3.265,4.605,7.429,4.605,11.839
                                                            c0,0.472-0.014,0.931-0.054,1.389c0.392,0.282,0.784,0.483,1.185,0.592c3.881,1.011,6.52,1.653,6.52,3.956
                                                            c0,2.304-0.519,2.232-2.344,2.232c-1.428,0-4.308-0.699-6.556-1.654c-0.895,2.242-2.256,4.292-4.041,6.042
                                                            c-0.243,0.236-0.5,0.471-0.75,0.696c3.521,2.163,7.097,2.968,10.905,2.968c5.862,0,12.961-3.229,12.966-10.498
                                                            C77.651,22.003,71.203,19.487,68.428,18.84"></path>
                                                        <path fill="#009844" id="brand_svg_c7_1" d="M64.687,38.978c-4.226,0-7.762-0.963-11.13-3.031l-0.487-0.3l0.426-0.383
                                                            c0.246-0.222,0.499-0.453,0.738-0.685c1.733-1.699,3.06-3.684,3.941-5.894l0.161-0.406l0.403,0.171
                                                            c2.104,0.894,4.97,1.62,6.389,1.62h0.306c1.458,0,1.61,0,1.61-1.805c0-1.844-2.053-2.464-5.987-3.487l-0.213-0.055
                                                            c-0.444-0.121-0.877-0.336-1.326-0.658l-0.197-0.143l0.021-0.242c0.036-0.406,0.053-0.835,0.053-1.352
                                                            c0-4.271-1.596-8.373-4.493-11.551l-0.233-0.256l0.202-0.282c1.184-1.647,3.945-4.412,9.136-4.412l0.46-0.001
                                                            c1.333,0,2.258,0.021,3.264,0.286l0.756-1.155h0.231c2.239,0,6.485,0.932,7.833,1.719l0.294,0.172l-2.894,9.31l-0.46-0.258
                                                            c-3.383-1.889-6.304-1.889-7.265-1.889c-1.208,0.002-1.99,0.653-1.99,1.659c0,1.465,1.573,2.119,4.291,2.753
                                                            c0.978,0.228,9.554,2.434,9.555,9.628C78.075,35.225,71.338,38.978,64.687,38.978z M54.494,35.51
                                                            c3.082,1.78,6.336,2.613,10.192,2.613c5.037,0,12.533-2.683,12.539-10.071c-0.002-6.534-7.985-8.583-8.896-8.795
                                                            c-2.505-0.585-4.95-1.344-4.95-3.586c0-1.477,1.17-2.511,2.845-2.515c0.971,0,3.84,0,7.219,1.749l2.374-7.641
                                                            c-1.363-0.611-4.8-1.393-6.872-1.448l-0.852,1.298L67.787,7.02c-1.016-0.314-1.934-0.337-3.322-0.337h-0.396
                                                            c-4.405,0-6.921,1.995-8.301,3.783c2.893,3.297,4.48,7.496,4.48,11.863c0,0.438-0.012,0.817-0.035,1.176
                                                            c0.292,0.188,0.572,0.316,0.851,0.393l0.209,0.054c3.847,1,6.626,1.724,6.626,4.314c0,2.431-0.676,2.66-2.465,2.661l-0.306-0.001
                                                            c-1.45,0-4.152-0.657-6.323-1.524c-0.923,2.161-2.259,4.108-3.974,5.79C54.721,35.298,54.608,35.404,54.494,35.51z"></path>
                                                    </g>
                                                    <g>
                                                        <path fill="#E50012" id="brand_svg_c3" d="M16.85,22.65V15.38c3.954,0,5.142,1.441,5.142,3.529C21.991,20.995,20.583,22.653,16.85,22.65
                                                             M15.914,6.027L7.71,6.023l-2.418,9.36l2.196-0.004v23.162l9.361,0.004v-7.192c7.84,0,14.733-3.241,14.733-11.873
                                                            C31.586,10.849,24.699,6.031,15.914,6.027"></path>
                                                        <path fill="#E50012" id="brand_svg_c3_1" d="M17.277,38.974L7.061,38.97V15.808l-2.32,0.005L7.379,5.596L15.914,5.6
                                                            c9.631,0.004,16.1,5.582,16.097,13.881c0,7.701-5.362,12.166-14.733,12.298V38.974z M7.916,38.114l8.506,0.004v-7.192h0.428
                                                            c4.301,0,14.306-1.115,14.306-11.445c0.003-7.908-5.979-13.022-15.241-13.026L8.041,6.45l-2.197,8.505l2.072-0.004V38.114z
                                                             M16.86,23.077h-0.428l-0.011-0.427v-7.698h0.428c3.748,0,5.569,1.295,5.569,3.957C22.419,20.162,21.877,23.077,16.86,23.077z
                                                             M17.277,15.813v6.401c2.81-0.103,4.286-1.241,4.286-3.306C21.563,17.516,21.065,15.924,17.277,15.813z"></path>
                                                    </g>
                                                    <g>
                                                        <path fill="#009FE8" id="brand_svg_c4" d="M41.767,29.727c-4.157,0.003-7.528-3.313-7.528-7.399c0.001-4.085,3.371-7.388,7.525-7.392
                                                            c4.159,0.004,7.526,3.314,7.522,7.392C49.288,26.418,45.92,29.729,41.767,29.727 M41.771,6.031
                                                            c-4.509,0.001-8.604,1.755-11.586,4.626c1.871,2.427,2.861,5.445,2.861,8.826c0,4.464-1.748,8.045-5.042,10.346
                                                            c-0.242,0.17-0.479,0.318-0.726,0.473c2.843,4.977,8.263,8.335,14.484,8.337c9.165,0.004,16.597-7.298,16.597-16.31
                                                            C58.361,13.337,50.933,6.035,41.771,6.031"></path>
                                                        <path fill="#009FE8" id="brand_svg_c4_1" d="M41.771,39.066L41.771,39.066h-0.008c-6.15-0.002-11.844-3.279-14.855-8.553l-0.205-0.357l0.35-0.218
                                                            c0.239-0.149,0.471-0.294,0.706-0.46c3.18-2.221,4.86-5.677,4.86-9.995c0-3.252-0.959-6.213-2.772-8.565l-0.234-0.303l0.276-0.267
                                                            c3.178-3.059,7.397-4.743,11.883-4.745c9.384,0.004,17.018,7.508,17.017,16.726c0,4.474-1.771,8.677-4.987,11.839
                                                            C50.588,37.327,46.315,39.066,41.771,39.066z M27.857,30.441c2.91,4.802,8.201,7.769,13.906,7.771l0.008,0.427v-0.427
                                                            c4.318,0,8.377-1.653,11.43-4.654c3.051-2.999,4.731-6.986,4.731-11.229c0.001-8.746-7.249-15.866-16.161-15.871
                                                            c-4.135,0.002-8.031,1.508-11.015,4.249c1.779,2.45,2.718,5.476,2.718,8.776c0,4.609-1.807,8.309-5.226,10.695
                                                            C28.118,30.271,27.988,30.357,27.857,30.441z M41.771,30.154l-0.005-0.428l-0.005,0.428c-2.123,0-4.118-0.813-5.62-2.29
                                                            c-1.503-1.479-2.331-3.445-2.331-5.537c0.001-4.308,3.569-7.815,7.953-7.819c2.125,0.002,4.121,0.815,5.622,2.291
                                                            c1.503,1.477,2.329,3.44,2.327,5.528c0.002,2.093-0.825,4.06-2.327,5.538C45.887,29.342,43.893,30.154,41.771,30.154z
                                                             M41.764,15.363c-3.912,0.004-7.097,3.128-7.098,6.964c0,1.86,0.736,3.61,2.075,4.927c1.341,1.319,3.124,2.045,5.021,2.045h0.005
                                                            v0.428l0.005-0.428c1.895,0,3.676-0.726,5.015-2.044c1.338-1.315,2.073-3.066,2.072-4.928c0.002-1.857-0.734-3.604-2.072-4.918
                                                            C45.446,16.092,43.662,15.365,41.764,15.363z"></path>
                                                    </g>
                                                    <g>
                                                        <path fill="#E50012" id="brand_svg_c5" d="M110.424,25.822l3.162-12.656l2.82,12.66L110.424,25.822z M120.499,6.039l-16.116,0.004l-2.488,9.131
                                                            h2.632l-3.934,12.318c0.344,0.604,0.742,1.326,1.151,2.17c1.301,2.626,1.86,4.952,1.888,5.042l0.205,0.884l-0.719,0.566
                                                            c-1.229,0.977-2.585,1.782-4.01,2.403l8.124,0.004l1.176-4.679h9.798l1.043,4.675l10.032,0.004L120.499,6.039z"></path>
                                                        <path fill="#E50012" id="brand_svg_c5_1" d="M129.84,38.989l-10.934-0.004l-1.043-4.675h-9.121l-1.176,4.679l-8.458-0.004l-0.171-0.819
                                                            c1.414-0.617,2.731-1.406,3.914-2.347l0.507-0.399l-0.144-0.619c-0.208-0.798-0.783-2.787-1.854-4.949
                                                            c-0.427-0.88-0.832-1.61-1.14-2.147l-0.093-0.163l3.813-11.939h-2.606l2.723-9.986l16.77-0.004L129.84,38.989z M100.931,38.131
                                                            l5.969,0.003l1.176-4.679h10.474l1.043,4.676l9.131,0.003l-8.552-31.667L104.71,6.471l-2.256,8.275h2.657l-4.054,12.698
                                                            c0.3,0.53,0.677,1.218,1.071,2.031c1.104,2.229,1.698,4.285,1.902,5.065l0.284,1.215l-0.933,0.734
                                                            C102.616,37.099,101.796,37.647,100.931,38.131z M116.939,26.255l-7.063-0.006l3.296-13.187l0.832,0.011L116.939,26.255z
                                                             M110.972,25.396l4.901,0.003l-2.311-10.373L110.972,25.396z"></path>
                                                    </g>
                                                </g>
                                                </svg>