<svg version="1.1" id="brand_logo2" xmlns="http://www.w3.org/2000/svg" xmlns:xlink="http://www.w3.org/1999/xlink" x="0px" y="0px" width="90.332px" height="33.42px" viewBox="0 0 90.332 33.42" enable-background="new 0 0 90.332 33.42" xml:space="preserve">
<g>
<path fill="#21110D" d="M6.97,24.592c0,3.511-2.847,6.202-6.358,6.202c-0.208,0-0.408-0.013-0.611-0.032v2.634
c0.203,0.015,0.403,0.023,0.611,0.023c4.96,0,8.944-3.869,8.944-8.828V9.554c0-3.507,2.845-6.355,6.355-6.355
0.208,0,0.409,0.007,0.615,0.026v-2.63c-0.206-0.017-0.407-0.021-0.615-0.021c-4.96,0-8.941,4.021-8.941,8.98V24.592z"></path>
<rect x="21.213" y="8.1" fill="#21110D" width="2.586" height="18.695"></rect>
<polygon fill="#21110D" points="52.105,6.006 52.105,26.795 54.691,26.795 54.691,13.34 54.77,13.34 67.938,29.172 67.938,8.1 
65.351,8.1 65.351,21.76 65.217,21.76 	"></polygon>
<path fill="#21110D" d="M72.695,17.975c0-4.87,3.949-8.818,8.822-8.818c4.869,0,8.814,3.948,8.814,8.818
c0,4.874-3.945,8.823-8.814,8.823C76.645,26.798,72.695,22.849,72.695,17.975 M81.518,24.145c3.401,0,6.162-2.763,6.162-6.169
c0-3.403-2.761-6.164-6.162-6.164c-3.407,0-6.168,2.761-6.168,6.164C75.35,21.381,78.11,24.145,81.518,24.145"></path>
<path fill="#21110D" d="M43.632,6.006v5.595c-1.584-1.509-3.731-2.444-6.095-2.444c-4.869,0-8.816,3.948-8.816,8.818
c0,4.874,3.947,8.823,8.816,8.823c2.363,0,4.511-0.929,6.095-2.444v0.238c0,3.511-2.849,6.202-6.357,6.202
c-0.21,0-0.411-0.013-0.615-0.032v2.634c0.206,0.015,0.405,0.023,0.615,0.023c4.96,0,8.941-3.869,8.941-8.828V6.006H43.632z
M37.508,24.145c-3.407,0-6.165-2.763-6.165-6.169c0-3.403,2.758-6.164,6.165-6.164c3.157,0,5.76,2.372,6.124,5.431v1.473
C43.268,21.77,40.665,24.145,37.508,24.145"></path>
<path fill="#21110D" d="M22.511,3.703c1.02,0,1.851-0.829,1.851-1.854C24.361,0.828,23.53,0,22.511,0
c-1.026,0-1.854,0.828-1.854,1.849C20.656,2.874,21.484,3.703,22.511,3.703"></path>
</g>
</svg>