<svg version="1.1" id="brand_logo3" xmlns="http://www.w3.org/2000/svg" xmlns:xlink="http://www.w3.org/1999/xlink" x="0px" y="0px" width="148.633px" height="22.692px" viewBox="0 0 148.633 22.692" enable-background="new 0 0 148.633 22.692" xml:space="preserve">
                                                <g>
                                                    <rect x="64.338" y="7.167" fill="#231815" width="4.529" height="9.382"></rect>
                                                    <path fill="#231815" d="M46.406,10.988h-4.03c-0.017-0.837,0-3.756,0-3.756h-4.454v9.316h8.291c0.109,0,3.585-0.17,3.585-2.894
                                                        C49.798,10.931,46.406,10.988,46.406,10.988 M43.691,15.928c-1.928,0-2.371-1.605-2.371-2.23c0-0.632,0.586-2.092,2.281-2.092
                                                        c2.143,0,2.371,1.825,2.371,2.193C45.973,14.164,45.613,15.928,43.691,15.928"></path>
                                                    <polygon fill="#231815" points="33.798,14.075 36.52,14.075 36.52,12.843 33.821,12.843 	"></polygon>
                                                    <path fill="#231815" d="M58.363,11.332c0,0-1.713-0.56-3.421-0.604c-1.981-0.057-3.685,0.829-3.774,2.85
                                                        c-0.073,1.987,1.719,3.139,3.793,3.189c1.594,0.039,3.498-0.66,3.498-0.66l0.113,0.442h3.795v-5.657h-3.795L58.363,11.332z
                                                         M58.328,15.101c0,0-0.84,0.431-1.912,0.349c-1.078-0.08-1.982-0.712-1.982-1.757s1.072-1.69,1.996-1.69s1.898,0.333,1.898,0.333
                                                        V15.101z"></path>
                                                    <path fill="#231815" d="M11.52,11.128H7.704v3.228c0,0,0.328,1.194-1.454,1.176c-1.789-0.019-1.648-1.202-1.648-1.202v-3.221H0
                                                        v3.221c0,0.484,0.439,1.317,1.263,1.788c0.823,0.482,2.556,0.814,4.79,0.814c2.244,0,3.08-0.294,4.342-0.757
                                                        c1.259-0.459,1.125-1.471,1.125-1.471V11.128z"></path>
                                                    <path fill="#231815" d="M22.946,10.988c-0.538,0-2.034,0.288-2.187,0.331c-0.153,0.032-2.807,0.97-2.807,0.97v-1.161h-4.694
                                                        l-0.022,5.434h4.762v-2.704c1.288-0.721,1.628-0.633,2.387-0.594c0.77,0.04,0.834,0.849,0.834,0.849v2.449h4.744v-3.163
                                                        c0-0.446-0.113-0.944-0.625-1.55C24.822,11.243,23.47,10.988,22.946,10.988"></path>
                                                    <rect x="27.599" y="11.128" fill="#231815" width="4.767" height="5.42"></rect>
                                                    <polygon fill="#231815" points="32.313,7.308 27.557,7.308 27.557,9.438 32.313,9.462 	"></polygon>
                                                    <rect x="70.518" y="7.167" fill="#231815" width="4.534" height="9.382"></rect>
                                                    <path fill="#231815" d="M102.254,3.375c-0.844-1.04-1.883-1.864-3.12-2.468C97.896,0.302,96.475,0,94.872,0
                                                        c-1.601,0-3.022,0.302-4.259,0.907c-1.238,0.604-2.276,1.428-3.121,2.468c-0.844,1.04-1.484,2.242-1.92,3.606
                                                        c-0.438,1.364-0.654,2.82-0.654,4.366c0,1.547,0.217,3.01,0.654,4.387c0.436,1.378,1.076,2.58,1.92,3.605
                                                        c0.845,1.027,1.883,1.843,3.121,2.446c1.236,0.604,2.658,0.907,4.259,0.907c1.603,0,3.023-0.303,4.262-0.907
                                                        c1.237-0.604,2.276-1.419,3.12-2.446c0.844-1.026,1.482-2.228,1.919-3.605c0.435-1.377,0.653-2.84,0.653-4.387
                                                        c0-1.545-0.219-3.002-0.653-4.366C103.736,5.616,103.098,4.415,102.254,3.375 M102.676,15.08c-0.365,1.194-0.902,2.254-1.604,3.183
                                                        c-0.701,0.929-1.574,1.667-2.613,2.215c-1.043,0.548-2.236,0.822-3.587,0.822c-1.348,0-2.544-0.274-3.583-0.822
                                                        c-1.042-0.547-1.914-1.286-2.617-2.215c-0.703-0.928-1.236-1.988-1.604-3.183c-0.365-1.195-0.545-2.441-0.545-3.734
                                                        c0-1.293,0.18-2.538,0.545-3.733c0.367-1.195,0.9-2.256,1.604-3.184c0.703-0.929,1.575-1.666,2.617-2.215
                                                        c1.039-0.548,2.235-0.822,3.583-0.822c1.351,0,2.544,0.274,3.587,0.822c1.039,0.549,1.912,1.286,2.613,2.215
                                                        c0.701,0.928,1.238,1.989,1.604,3.184s0.549,2.44,0.549,3.733C103.225,12.639,103.041,13.885,102.676,15.08"></path>
                                                    <path fill="#231815" d="M125.451,5.313c-0.139-0.645-0.373-1.287-0.697-1.918c-0.322-0.632-0.765-1.202-1.326-1.708
                                                        c-0.564-0.508-1.289-0.913-2.174-1.223C120.369,0.155,119.291,0,118.028,0c-0.845,0-1.675,0.112-2.492,0.338
                                                        c-0.813,0.224-1.565,0.562-2.253,1.01c-0.689,0.451-1.295,0.992-1.814,1.625c-0.522,0.633-0.922,1.357-1.203,2.171h-0.082V0.507
                                                        h-1.604v21.679h1.604V10.46c0-1.321,0.176-2.537,0.525-3.649c0.352-1.108,0.865-2.066,1.539-2.866s1.499-1.428,2.467-1.877
                                                        c0.974-0.449,2.061-0.676,3.271-0.676c1.461,0,2.608,0.269,3.436,0.802c0.832,0.535,1.447,1.175,1.857,1.919
                                                        c0.406,0.746,0.651,1.518,0.737,2.32c0.083,0.801,0.126,1.482,0.126,2.045v13.708h1.604V8.772c0-0.449-0.014-0.976-0.043-1.58
                                                        C125.676,6.588,125.592,5.962,125.451,5.313"></path>
                                                    <path fill="#231815" d="M148.207,7.127c-0.352-1.405-0.922-2.635-1.707-3.689c-0.787-1.055-1.801-1.891-3.041-2.51
                                                        C142.223,0.31,140.766,0,139.076,0c-1.631,0-3.055,0.331-4.259,0.993c-1.21,0.659-2.218,1.537-3.019,2.636
                                                        c-0.801,1.095-1.391,2.347-1.771,3.753s-0.555,2.853-0.528,4.344c-0.026,1.49,0.164,2.903,0.57,4.238
                                                        c0.408,1.336,1.012,2.506,1.816,3.502c0.799,0.999,1.803,1.786,3.012,2.361c1.209,0.577,2.604,0.865,4.178,0.865
                                                        c2.586,0,4.688-0.668,6.305-2.004c1.616-1.335,2.639-3.281,3.057-5.84h-1.602c-0.394,2.022-1.273,3.606-2.637,4.744
                                                        c-1.365,1.139-3.073,1.708-5.123,1.708c-1.35,0-2.525-0.267-3.524-0.801c-0.996-0.534-1.833-1.25-2.507-2.151
                                                        c-0.677-0.898-1.176-1.941-1.496-3.122c-0.326-1.18-0.473-2.401-0.443-3.668h17.504C148.691,10.012,148.561,8.535,148.207,7.127
                                                         M131.105,10.165c0.083-1.067,0.32-2.13,0.715-3.186c0.395-1.053,0.93-1.995,1.604-2.825c0.675-0.83,1.482-1.497,2.428-2.004
                                                        c0.941-0.505,2.016-0.76,3.225-0.76c1.236,0,2.342,0.248,3.311,0.738c0.971,0.492,1.793,1.14,2.469,1.94
                                                        c0.674,0.801,1.193,1.738,1.557,2.806c0.367,1.068,0.566,2.166,0.593,3.29H131.105z"></path>
                                                </g>
                                                </svg>