<svg version="1.1" id="main_logo" xmlns="http://www.w3.org/2000/svg" xmlns:xlink="http://www.w3.org/1999/xlink" x="0px" y="0px" width="349.182px" height="159.049px" viewBox="0 0 349.182 159.049" enable-background="new 0 0 349.182 159.049" xml:space="preserve">
<g>
	<g class="logo_text">
		<path fill="#241916" d="M0,132.211h6.44l7.205,20.523h0.076l7.013-20.523h6.359v26.211h-4.345v-20.214H22.68l-7.25,20.214h-3.755
			l-7.25-20.214H4.359v20.214H0V132.211z"></path>
		<path fill="#241916" d="M32.575,132.211h4.578v26.211h-4.578V132.211z"></path>
		<path fill="#241916" d="M40.523,132.211h21.123v3.979h-8.297v22.232h-4.564v-22.232h-8.261V132.211z"></path>
		<path fill="#241916" d="M67.562,149.682c0,4.037,2.972,5.621,6.624,5.621c4.014,0,5.518-1.986,5.518-3.965
			c0-2.019-1.092-2.833-2.162-3.235c-1.83-0.694-4.193-1.173-7.787-2.157c-4.471-1.213-5.777-3.93-5.777-6.646
			c0-5.254,4.82-7.702,9.55-7.702c5.446,0,10.007,2.891,10.007,8.364h-4.561c-0.228-3.379-2.497-4.627-5.625-4.627
			c-2.135,0-4.798,0.773-4.798,3.419c0,1.825,1.24,2.854,3.115,3.369c0.394,0.107,6.176,1.616,7.518,2.019
			c3.437,1.029,5.084,3.961,5.084,6.682c0,5.876-5.191,8.226-10.369,8.226c-5.97,0-10.794-2.873-10.906-9.367H67.562z"></path>
		<path fill="#241916" d="M87.956,132.211h4.574v15.283c0,3.513,0.215,7.59,6.145,7.59c5.916,0,6.144-4.077,6.144-7.59v-15.283
			h4.574v16.773c0,6.722-4.292,10.064-10.718,10.064c-6.44,0-10.718-3.343-10.718-10.064V132.211z"></path>
		<path fill="#241916" d="M114.646,132.211h12.683c4.681,0,7.765,2.135,7.765,6.507c0,2.636-1.365,4.538-3.741,5.567v0.085
			c3.182,0.685,4.918,3.187,4.918,6.744c0,4.112-2.868,7.308-9.63,7.308h-11.994V132.211z M119.219,143.184h7.456
			c2.202,0,3.84-1.284,3.84-3.629c0-2.641-1.356-3.594-3.84-3.594h-7.456V143.184z M119.219,154.677h8.082
			c2.77,0,4.395-1.513,4.395-4.149c0-2.572-1.625-4.045-4.395-4.045h-8.082V154.677z"></path>
		<path fill="#241916" d="M140.396,132.211h4.564v26.211h-4.564V132.211z"></path>
		<path fill="#241916" d="M153.553,149.682c0,4.037,2.963,5.621,6.619,5.621c4.001,0,5.522-1.986,5.522-3.965
			c0-2.019-1.097-2.833-2.148-3.235c-1.848-0.694-4.22-1.173-7.791-2.157c-4.48-1.213-5.791-3.93-5.791-6.646
			c0-5.254,4.833-7.702,9.541-7.702c5.446,0,10.016,2.891,10.016,8.364h-4.569c-0.21-3.379-2.483-4.627-5.625-4.627
			c-2.112,0-4.793,0.773-4.793,3.419c0,1.825,1.249,2.854,3.11,3.369c0.403,0.107,6.185,1.616,7.527,2.019
			c3.451,1.029,5.088,3.961,5.088,6.682c0,5.876-5.196,8.226-10.382,8.226c-5.961,0-10.794-2.873-10.897-9.367H153.553z"></path>
		<path fill="#241916" d="M174.139,132.211h4.564v10.427h11.887v-10.427h4.564v26.211h-4.564v-11.823h-11.887v11.823h-4.564V132.211
			z"></path>
		<path fill="#241916" d="M200.632,132.211h4.587v26.211h-4.587V132.211z"></path>
		<path fill="#241916" d="M220.967,132.211h11.516c7.455,0,8.887,4.842,8.887,8.113c0,3.235-1.432,8.082-8.887,8.033h-6.95v10.064
			h-4.565V132.211z M225.532,144.621h6.694c2.05,0,4.569-1.034,4.569-4.328c0-3.455-2.085-4.332-4.484-4.332h-6.779V144.621z"></path>
		<path fill="#241916" d="M245.357,132.211h18.796v3.979h-14.24v6.852h13.17v3.746h-13.17v7.67h14.481v3.965h-19.037V132.211z"></path>
		<path fill="#241916" d="M268.217,132.211h4.806l11.927,19.306h0.054v-19.306h4.372v26.211h-4.838l-11.881-19.266h-0.099v19.266
			h-4.341V132.211z"></path>
		<path fill="#241916" d="M312.404,140.548c-0.77-3.003-2.712-5.213-6.516-5.213c-5.59,0-7.93,4.958-7.93,9.979
			c0,5.03,2.34,9.988,7.93,9.988c4.063,0,6.287-3.048,6.668-6.865h4.466c-0.385,6.279-4.797,10.611-11.134,10.611
			c-7.832,0-12.495-6.248-12.495-13.734c0-7.482,4.663-13.717,12.495-13.717c5.898,0.022,10.534,3.294,11.08,8.95H312.404z"></path>
		<path fill="#241916" d="M321.189,132.211h4.551v26.211h-4.551V132.211z"></path>
		<path fill="#241916" d="M331.344,132.211h4.573v22.246h13.265v3.965h-17.838V132.211z"></path>
	</g>
</g>
<path class="main_logo" fill="#E72828" d="M294.875,43.794h54.307v65.53h-54.307V43.794z M294.875,0v26.104h54.307V0H294.875z M129.485,43.794H85.557
	v42.372c0,7.701-9.103,10.042-15.52,10.042c-9.398,0-16.983-3.271-16.983-11.152V43.794H0v34.548
	c0,19.48,13.18,34.862,68.649,34.862c37.216,0,60.836-8.781,60.836-28.816V43.794z M283.629,71.885
	c0-17.153-14.079-29.111-35.627-29.111c-16.644,0-36.303,7.733-52.959,14.898V43.794h-54.32v65.53h54.32V76.835
	c0,0,6.658-5.29,16.329-6.744c11.18-1.674,17.588,0,17.588,12.186v27.048h54.669V71.885z"></path>
</svg>