<svg version="1.1" id="sns_logo1" xmlns="http://www.w3.org/2000/svg" xmlns:xlink="http://www.w3.org/1999/xlink" x="0px" y="0px" width="32.416px" height="22.985px" viewBox="0 0 32.416 22.985" enable-background="new 0 0 32.416 22.985" xml:space="preserve">
					<path d="M31.925,4.186c-0.62-2.479-1.779-3.43-3.912-3.772C26.788,0.232,20.891,0,16.207,0C11.524,0,5.627,0.232,4.402,0.414
						C2.271,0.756,1.108,1.713,0.494,4.186C0.285,5.011,0,9.567,0,11.301v0.384c0,1.736,0.285,6.288,0.494,7.119
						c0.614,2.471,1.776,3.424,3.908,3.766c1.225,0.184,7.13,0.413,11.816,0.413l-0.021,0.003c4.688,0,10.587-0.232,11.815-0.416
						c2.133-0.342,3.292-1.295,3.912-3.766c0.206-0.831,0.491-5.382,0.491-7.119v-0.384C32.416,9.567,32.131,5.011,31.925,4.186z
						 M12.322,15.647v-8.31l7.771,4.057L12.322,15.647z"></path>
					</svg>