<svg version="1.1" id="sns_logo4" xmlns="http://www.w3.org/2000/svg" xmlns:xlink="http://www.w3.org/1999/xlink" x="0px" y="0px" width="25.954px" height="25.951px" viewBox="0 0 25.954 25.951" enable-background="new 0 0 25.954 25.951" xml:space="preserve">
					<path d="M18.465,0H7.492C3.354,0,0,3.353,0,7.49v10.972c0,4.141,3.354,7.489,7.492,7.489h10.973c4.139,0,7.489-3.349,7.489-7.489
						V7.49C25.954,3.353,22.604,0,18.465,0 M23.564,18.656c0,2.744-2.227,4.974-4.973,4.974H7.361c-2.743,0-4.973-2.229-4.973-4.974
						V7.428c0-2.747,2.229-4.974,4.973-4.974h11.23c2.746,0,4.973,2.227,4.973,4.974V18.656z"></path>
					<path d="M12.977,6.307c-3.72,0-6.732,3.016-6.732,6.735c0,3.717,3.013,6.733,6.732,6.733c3.718,0,6.737-3.017,6.737-6.733
						C19.714,9.322,16.694,6.307,12.977,6.307 M12.977,17.406c-2.409,0-4.365-1.954-4.365-4.364c0-2.412,1.956-4.367,4.365-4.367
						c2.412,0,4.366,1.955,4.366,4.367C17.343,15.452,15.389,17.406,12.977,17.406"></path>
					<path d="M19.938,4.48c-0.866,0-1.569,0.703-1.569,1.569c0,0.868,0.703,1.569,1.569,1.569c0.867,0,1.568-0.701,1.568-1.569
						C21.506,5.184,20.805,4.48,19.938,4.48"></path>
					</svg>